<svg width="1600" height="1200" viewBox="0 0 1600 1200" fill="none" xmlns="http://www.w3.org/2000/svg">
  <defs>
    <linearGradient id="bg" x1="170" y1="70" x2="1410" y2="1110" gradientUnits="userSpaceOnUse">
      <stop stop-color="#173A34"/>
      <stop offset="0.52" stop-color="#2F5D50"/>
      <stop offset="1" stop-color="#6A472B"/>
    </linearGradient>
    <radialGradient id="glow1" cx="0" cy="0" r="1" gradientUnits="userSpaceOnUse" gradientTransform="translate(365 312) rotate(20) scale(380 300)">
      <stop stop-color="#F6EAD8" stop-opacity="0.4"/>
      <stop offset="1" stop-color="#F6EAD8" stop-opacity="0"/>
    </radialGradient>
    <radialGradient id="glow2" cx="0" cy="0" r="1" gradientUnits="userSpaceOnUse" gradientTransform="translate(1230 860) rotate(-24) scale(450 360)">
      <stop stop-color="#D4A373" stop-opacity="0.38"/>
      <stop offset="1" stop-color="#D4A373" stop-opacity="0"/>
    </radialGradient>
    <linearGradient id="paper" x1="670" y1="390" x2="1030" y2="790" gradientUnits="userSpaceOnUse">
      <stop stop-color="#FFF7EC"/>
      <stop offset="1" stop-color="#F2DFC5"/>
    </linearGradient>
  </defs>

  <rect width="1600" height="1200" fill="url(#bg)"/>
  <rect width="1600" height="1200" fill="url(#glow1)"/>
  <rect width="1600" height="1200" fill="url(#glow2)"/>

  <g opacity="0.25">
    <path d="M65 162C254 91 420 177 534 220C677 274 739 306 936 261C1122 218 1334 93 1535 199" stroke="#F6EAD8" stroke-width="3" stroke-linecap="round"/>
    <path d="M48 267C238 196 413 280 529 328C674 386 766 427 979 379C1186 332 1371 221 1538 300" stroke="#F6EAD8" stroke-opacity="0.7" stroke-width="2" stroke-linecap="round"/>
    <path d="M37 380C246 321 444 412 570 467C718 531 846 567 1039 524C1238 478 1381 368 1555 439" stroke="#F6EAD8" stroke-opacity="0.55" stroke-width="2" stroke-linecap="round"/>
  </g>

  <g transform="translate(705 410) rotate(-6)">
    <rect x="0" y="0" width="420" height="560" rx="26" fill="url(#paper)"/>
    <rect x="29" y="58" width="363" height="6" rx="3" fill="#D8B98F"/>
    <rect x="29" y="114" width="335" height="6" rx="3" fill="#D8B98F"/>
    <rect x="29" y="170" width="372" height="6" rx="3" fill="#D8B98F"/>
    <rect x="29" y="226" width="305" height="6" rx="3" fill="#D8B98F"/>
    <rect x="29" y="282" width="360" height="6" rx="3" fill="#D8B98F"/>
    <rect x="29" y="338" width="321" height="6" rx="3" fill="#D8B98F"/>
    <rect x="29" y="394" width="350" height="6" rx="3" fill="#D8B98F"/>
    <rect x="29" y="450" width="274" height="6" rx="3" fill="#D8B98F"/>
    <rect x="29" y="506" width="336" height="6" rx="3" fill="#D8B98F"/>
    <rect x="-10" y="28" width="22" height="504" rx="10" fill="#D1495B" fill-opacity="0.75"/>
  </g>

  <g transform="translate(458 542)">
    <rect x="0" y="0" width="280" height="178" rx="20" fill="#173A34" fill-opacity="0.85"/>
    <rect x="24" y="25" width="232" height="18" rx="9" fill="#D4A373" fill-opacity="0.75"/>
    <rect x="24" y="61" width="163" height="12" rx="6" fill="#F6EAD8" fill-opacity="0.78"/>
    <rect x="24" y="88" width="212" height="12" rx="6" fill="#F6EAD8" fill-opacity="0.68"/>
    <rect x="24" y="115" width="141" height="12" rx="6" fill="#F6EAD8" fill-opacity="0.68"/>
    <circle cx="232" cy="131" r="28" fill="#2F5D50"/>
    <path d="M220 131L230 141L246 123" stroke="#F6EAD8" stroke-width="5" stroke-linecap="round" stroke-linejoin="round"/>
  </g>

  <g opacity="0.72">
    <circle cx="266" cy="191" r="7" fill="#F6EAD8"/>
    <circle cx="321" cy="224" r="4" fill="#D4A373"/>
    <circle cx="362" cy="173" r="5" fill="#F6EAD8"/>
    <circle cx="1260" cy="255" r="7" fill="#D4A373"/>
    <circle cx="1322" cy="222" r="4" fill="#F6EAD8"/>
    <circle cx="1415" cy="286" r="6" fill="#F6EAD8"/>
    <circle cx="1232" cy="965" r="7" fill="#F6EAD8"/>
    <circle cx="1300" cy="924" r="4" fill="#D4A373"/>
    <circle cx="1384" cy="970" r="5" fill="#F6EAD8"/>
  </g>
</svg>
